<?xml version="1.0" encoding="UTF-8" standalone="no"?>
<svg xmlns="http://www.w3.org/2000/svg" width="512" height="512" viewBox="0 0 512 512">
  <!-- Background Circle -->
  <circle cx="256" cy="256" r="240" fill="#0071e3" />
  
  <!-- QR Code Design (Simplified) -->
  <g fill="white" transform="translate(128, 128) scale(0.5)">
    <!-- QR Code Outer Frame -->
    <rect x="40" y="40" width="432" height="432" rx="20" ry="20" fill="white" />
    
    <!-- QR Code Inner Elements -->
    <g fill="#0071e3">
      <!-- Top-left position marker -->
      <rect x="80" y="80" width="80" height="80" rx="10" ry="10" />
      <rect x="100" y="100" width="40" height="40" fill="white" />
      <rect x="110" y="110" width="20" height="20" />
      
      <!-- Top-right position marker -->
      <rect x="352" y="80" width="80" height="80" rx="10" ry="10" />
      <rect x="372" y="100" width="40" height="40" fill="white" />
      <rect x="382" y="110" width="20" height="20" />
      
      <!-- Bottom-left position marker -->
      <rect x="80" y="352" width="80" height="80" rx="10" ry="10" />
      <rect x="100" y="372" width="40" height="40" fill="white" />
      <rect x="110" y="382" width="20" height="20" />
      
      <!-- QR Code data elements (simplified) -->
      <rect x="200" y="80" width="30" height="30" />
      <rect x="260" y="80" width="30" height="30" />
      <rect x="320" y="80" width="30" height="30" />
      
      <rect x="200" y="140" width="30" height="30" />
      <rect x="260" y="140" width="30" height="30" />
      <rect x="320" y="140" width="30" height="30" />
      
      <rect x="80" y="200" width="30" height="30" />
      <rect x="140" y="200" width="30" height="30" />
      <rect x="200" y="200" width="30" height="30" />
      <rect x="320" y="200" width="30" height="30" />
      <rect x="380" y="200" width="30" height="30" />
      
      <rect x="80" y="260" width="30" height="30" />
      <rect x="200" y="260" width="30" height="30" />
      <rect x="260" y="260" width="30" height="30" />
      <rect x="320" y="260" width="30" height="30" />
      
      <rect x="200" y="320" width="30" height="30" />
      <rect x="260" y="320" width="30" height="30" />
      <rect x="320" y="320" width="30" height="30" />
      <rect x="380" y="320" width="30" height="30" />
    </g>
  </g>
  
  <!-- Tag Icon -->
  <g transform="translate(280, 280) rotate(45) scale(0.6)">
    <rect x="-50" y="-75" width="100" height="150" rx="15" ry="15" fill="white" stroke="#0071e3" stroke-width="8" />
    <circle cx="0" cy="-40" r="15" fill="none" stroke="#0071e3" stroke-width="8" />
  </g>
  
  <!-- Magnifying Glass -->
  <g transform="translate(170, 170) scale(0.25)">
    <circle cx="0" cy="0" r="120" fill="none" stroke="white" stroke-width="40" />
    <line x1="90" y1="90" x2="180" y2="180" stroke="white" stroke-width="40" stroke-linecap="round" />
  </g>
</svg>
